<?xml version="1.0" encoding="UTF-8" standalone="no"?>
<!DOCTYPE svg PUBLIC "-//W3C//DTD SVG 1.1//EN" "http://www.w3.org/Graphics/SVG/1.1/DTD/svg11.dtd">
<svg width="100%" height="100%" viewBox="0 0 1000 1000" version="1.1" xmlns="http://www.w3.org/2000/svg" xmlnsXlink="http://www.w3.org/1999/xlink" xml:space="preserve" xmlnsSerif="http://www.serif.com/" style="fill-rule:evenodd;clip-rule:evenodd;stroke-linecap:round;stroke-linejoin:round;stroke-miterlimit:1.5;">
    <g transform="matrix(4.29112,0,0,4.30315,-1905.31,-1493.95)">
        <path d="M666.714,488.2C634.138,519.187 595.621,528.196 549.06,504.833C521.127,488.007 489.807,478.785 452.153,483.783C452.918,488.215 454.052,492.805 455.718,497.623C487.221,493.974 518.97,502.172 546.591,520.146C575.308,538.835 628.055,541.497 657.284,512.959C661.643,505.413 664.71,497.116 666.714,488.2Z" style="fill:url(#_Linear1);"/>
    </g>
    <g transform="matrix(4.29112,0,0,4.30315,-1905.31,-1493.95)">
        <path d="M450.407,451.016C466.989,436.537 501.639,425.954 528.074,454.355C549.035,476.874 556.655,504.465 597.83,503.828C630.798,503.318 646.623,487.88 669.247,462.619C668.69,405.968 627.593,356.772 561.975,353.985C504.302,351.535 457.642,397.111 450.407,451.016Z" style="fill:rgb(0,56,117);stroke:rgb(0,56,117);stroke-width:0.23px;"/>
    </g>
    <g transform="matrix(4.29112,0,0,4.30315,-1905.31,-1493.95)">
        <path d="M461.409,512.012C491.821,510.877 517.528,518.281 541.716,532.071C580.933,554.429 610.791,550.347 639.126,538.765C614.306,574.318 512.994,600.904 461.409,512.012Z" style="fill:rgb(64,137,241);stroke:rgb(64,137,241);stroke-width:0.23px;"/>
    </g>
    <defs>
        <linearGradient id="_Linear1" x1="0" y1="0" x2="1" y2="0" gradientUnits="userSpaceOnUse" gradientTransform="matrix(214.56,0,0,51.876,452.153,508.365)"><stop offset="0" style="stop-color:rgb(64,137,241);stop-opacity:1"/><stop offset="0.54" style="stop-color:rgb(18,79,153);stop-opacity:1"/><stop offset="1" style="stop-color:rgb(0,56,117);stop-opacity:1"/></linearGradient>
    </defs>
</svg>
